<?xml version="1.0" standalone="no"?>
<!DOCTYPE svg PUBLIC "-//W3C//DTD SVG 20010904//EN"
 "http://www.w3.org/TR/2001/REC-SVG-20010904/DTD/svg10.dtd">
<svg version="1.0" xmlns="http://www.w3.org/2000/svg"
 width="640.000000pt" height="1280.000000pt" viewBox="0 0 640.000000 1280.000000"
 preserveAspectRatio="xMidYMid meet">
<g transform="translate(0.000000,1280.000000) scale(0.100000,-0.100000)"
fill="#000000" stroke="none">
<path d="M3373 12613 c-626 -944 -1022 -1898 -1124 -2708 -19 -145 -16 -490 5
-670 38 -321 130 -813 247 -1314 33 -141 62 -267 65 -281 4 -20 -16 -53 -107
-175 -828 -1101 -1135 -1609 -1270 -2100 -27 -100 -37 -365 -20 -542 70 -719
368 -1311 840 -1667 235 -176 484 -282 797 -337 110 -20 162 -23 354 -22 218
0 280 5 498 40 62 10 107 12 112 7 17 -17 76 -357 105 -599 17 -148 20 -444 5
-615 -61 -716 -311 -1176 -754 -1390 -161 -77 -222 -94 -313 -86 -43 3 -81 10
-85 14 -5 5 16 26 47 46 211 146 317 385 270 611 -81 392 -536 627 -990 510
-33 -9 -103 -37 -155 -62 -80 -40 -109 -61 -185 -137 -132 -133 -185 -253
-185 -421 0 -143 52 -277 151 -389 92 -102 208 -173 370 -225 133 -42 187 -50
424 -61 256 -12 325 -17 391 -31 43 -10 64 -8 140 11 344 84 664 391 846 811
115 266 175 540 199 905 18 269 -1 520 -72 957 -17 104 -28 194 -26 202 3 7
43 25 89 41 315 105 602 291 802 520 185 211 308 464 367 750 26 127 37 422
20 546 -100 746 -690 1269 -1556 1378 -50 7 -182 10 -298 9 -175 -3 -210 -1
-217 11 -11 20 -180 684 -180 707 0 10 29 42 67 73 96 78 316 299 404 405 418
501 639 1065 715 1825 23 232 23 783 0 1095 -53 709 -159 1373 -333 2078 l-65
267 -127 87 c-69 47 -133 88 -141 90 -10 3 -50 -49 -127 -164z m395 -1218 c51
-37 106 -171 141 -347 41 -208 60 -443 62 -769 1 -193 -2 -239 -21 -329 -85
-418 -342 -902 -877 -1651 -228 -320 -317 -438 -330 -439 -7 0 -15 10 -18 23
-68 289 -160 731 -204 987 -131 755 -103 1166 112 1595 88 178 188 314 339
462 155 153 289 252 475 350 91 48 275 132 293 133 3 0 15 -7 28 -15z m-887
-4980 c43 -159 78 -298 79 -307 0 -12 -22 -24 -82 -43 -226 -75 -415 -191
-583 -360 -170 -169 -285 -355 -360 -577 -68 -205 -86 -428 -46 -582 45 -173
166 -361 346 -541 119 -118 369 -313 339 -263 -4 7 -24 34 -44 59 -46 58 -110
182 -144 277 -66 185 -105 526 -77 673 38 199 168 475 318 672 111 147 354
367 404 367 10 0 19 -2 19 -5 0 -3 54 -207 119 -453 186 -699 252 -954 370
-1432 141 -574 168 -697 155 -717 -25 -41 -269 -156 -409 -193 -241 -65 -596
-15 -895 126 -229 108 -456 299 -602 504 -246 346 -378 828 -378 1376 0 543
205 862 868 1349 90 66 239 175 330 243 92 67 173 121 181 120 10 -2 40 -98
92 -293z m914 -504 c91 -24 202 -74 272 -123 240 -164 389 -487 433 -937 15
-158 13 -422 -6 -532 -53 -319 -236 -644 -514 -913 -92 -90 -104 -98 -115 -82
-7 9 -16 34 -20 54 -32 178 -263 1124 -469 1923 -80 312 -146 572 -146 578 0
58 387 80 565 32z"/>
</g>
</svg>
